<?xml version="1.0" standalone="no"?><!DOCTYPE svg PUBLIC "-//W3C//DTD SVG 1.1//EN" "http://www.w3.org/Graphics/SVG/1.1/DTD/svg11.dtd"><svg t="1775023478285" class="icon" viewBox="0 0 1889 1024" version="1.1" xmlns="http://www.w3.org/2000/svg" p-id="26035" xmlns:xlink="http://www.w3.org/1999/xlink" width="368.9453125" height="200"><path d="M0 403.76h216.48v216.48H0z m836.721 216.48h216.48v216.481h-216.48z m649.442 216.481h-216.48V1024h403.759V620.24h-187.279z" fill="#624AFF" p-id="26036"></path><path d="M1053.202 403.76h216.48v216.48h-216.48zM0 187.279h216.48v216.48H0z" fill="#36CFD1" p-id="26037"></path><path d="M1673.442 403.76h216.48v216.48h-216.48z" fill="#624AFF" p-id="26038"></path><path d="M1673.442 187.279h216.48v216.48h-216.48z" fill="#36CFD1" p-id="26039"></path><path d="M1269.682 0v187.279h216.481v216.48h187.279V0z" fill="#624AFF" p-id="26040"></path><path d="M620.24 403.76h216.481v216.48h-216.48z" fill="#36CFD1" p-id="26041"></path><path d="M403.76 187.279h216.48V0H216.48v403.76h187.28z m0 432.961H216.48V1024h403.76V836.721H403.76z" fill="#624AFF" p-id="26042"></path></svg>