<?xml version="1.0" standalone="no"?><!DOCTYPE svg PUBLIC "-//W3C//DTD SVG 1.1//EN" "http://www.w3.org/Graphics/SVG/1.1/DTD/svg11.dtd"><svg t="1775024048067" class="icon" viewBox="0 0 1024 1024" version="1.1" xmlns="http://www.w3.org/2000/svg" p-id="11023" xmlns:xlink="http://www.w3.org/1999/xlink" width="200" height="200"><path d="M153.6 0h716.8c84.736 0 153.6 68.864 153.6 153.6v716.8c0 84.736-68.864 153.6-153.6 153.6H153.6c-84.736 0-153.6-68.864-153.6-153.6V153.6c0-84.736 68.864-153.6 153.6-153.6z" fill="#F39F18" p-id="11024"></path><path d="M751.104 273.664c33.024 0 59.648 26.624 59.648 59.648v358.144c0 33.024-26.624 59.648-59.648 59.648H273.408c-33.024 0-59.648-26.624-59.648-59.648V333.312c0-33.024 26.624-59.648 59.648-59.648h477.952m-0.256-60.16H273.408C207.36 213.504 153.6 267.264 153.6 333.312v358.144c0 66.048 53.248 119.296 119.296 119.296h478.464c66.048 0 119.296-53.248 119.296-119.296V333.312c0-66.048-53.248-119.808-119.296-119.808z" fill="#FFFFFF" p-id="11025"></path><path d="M751.104 275.968c6.912 0 13.312 1.28 19.712 3.584l-215.296 198.912h-1.28c-23.04 23.04-61.44 23.04-84.48 0h-1.28l-215.808-198.912c6.4-2.304 13.312-3.584 19.712-3.584h478.464m0.256-60.16H273.408c-45.056 0-86.272 25.344-106.496 65.28l260.864 240.64a119.1168 119.1168 0 0 0 168.96 0l260.864-240.64c-20.736-39.936-61.952-65.28-106.496-65.28z" fill="#FFFFFF" p-id="11026"></path></svg>