<?xml version="1.0" standalone="no"?><!DOCTYPE svg PUBLIC "-//W3C//DTD SVG 1.1//EN" "http://www.w3.org/Graphics/SVG/1.1/DTD/svg11.dtd"><svg t="1775138190532" class="icon" viewBox="0 0 1024 1024" version="1.1" xmlns="http://www.w3.org/2000/svg" p-id="18255" xmlns:xlink="http://www.w3.org/1999/xlink" width="200" height="200"><path d="M110.08 644.608c0-56.32 37.376-112.64 110.08-157.184 72.192-44.544 175.616-73.216 291.84-73.216 116.736 0 219.648 29.184 291.84 73.216 36.864 22.528 64.512 47.616 82.432 74.752 22.528-36.864 31.744-76.288 26.624-115.2-0.512-2.56 0-5.12 0.512-7.68-15.36-12.288-31.232-23.552-47.616-33.792-92.672-56.32-218.112-90.112-353.792-90.112s-261.12 33.792-354.304 90.624C65.024 462.848 2.56 537.088 2.56 634.88c0 98.304 62.464 191.488 155.136 248.32 93.184 56.832 218.624 90.624 354.304 90.624s261.12-33.792 354.304-90.624c92.672-56.832 157.696-140.288 157.696-238.592 0-62.464-26.112-118.784-69.12-166.4-2.048 43.52-19.456 85.504-48.128 123.904 4.608 13.824 7.168 28.16 7.168 42.496 0 56.32-37.376 112.64-110.08 157.184-72.192 44.544-175.616 73.216-291.84 73.216-116.736 0-219.648-29.184-291.84-73.216-72.704-44.544-110.08-100.864-110.08-157.184z" fill="#4161F6" p-id="18256"></path><path d="M131.072 507.904c-29.696 85.504-22.528 162.304 15.872 217.6s107.52 87.552 196.608 87.552c88.576 0 192-32.768 287.232-101.376s159.744-156.672 189.44-242.176c29.696-85.504 22.528-162.304-15.872-217.6s-107.52-87.552-196.608-87.552c-88.576 0-192 32.768-287.232 101.376s-160.256 157.184-189.44 242.176zM24.576 470.016c38.4-110.08 118.784-217.088 230.4-297.472C367.104 91.648 493.056 50.176 607.744 50.176c114.688 0 223.232 41.984 288.256 135.68 65.024 93.696 68.096 211.968 30.208 322.048-38.4 110.08-118.784 217.088-230.4 297.472-112.128 80.384-237.568 122.368-352.256 122.368s-223.232-41.984-288.256-135.68c-65.536-93.696-68.608-211.968-30.72-322.048z" fill="#1F40EA" p-id="18257"></path></svg>